<svg width="33" height="32" viewBox="0 0 33 32" fill="none" xmlns="http://www.w3.org/2000/svg">
<g clip-path="url(#clip0_32_3938)">
<path d="M27.3832 4.62041C24.4037 1.64091 20.4423 0 16.2286 0C12.015 0 8.05353 1.64091 5.07402 4.62041C2.09452 7.59991 0.453613 11.5613 0.453613 15.775C0.453613 18.9535 1.39099 22.0065 3.16728 24.6227L0.493544 30.8614C0.318355 31.2701 0.756789 31.6941 1.15998 31.502L7.12755 28.6603C9.79894 30.5519 12.9392 31.55 16.2286 31.55C20.4423 31.55 24.4037 29.9092 27.3832 26.9296C30.3628 23.9501 32.0036 19.9886 32.0036 15.775C32.0036 11.5613 30.3628 7.59991 27.3832 4.62041ZM16.2286 30.562C13.0519 30.562 10.024 29.5692 7.47226 27.6907C7.32708 27.5838 7.12977 27.5651 6.96702 27.6426L1.91748 30.0471L4.18304 24.761C4.25058 24.6033 4.2316 24.422 4.13276 24.2819C2.37219 21.7831 1.44158 18.8415 1.44158 15.775C1.44158 7.62142 8.07503 0.987971 16.2286 0.987971C24.3822 0.987971 31.0156 7.62142 31.0156 15.775C31.0156 23.9286 24.3822 30.562 16.2286 30.562Z" fill="#F2F2F2"/>
<path d="M24.9204 5.91979C24.7159 5.73917 24.4037 5.75877 24.2231 5.96329C24.0426 6.16781 24.0621 6.47998 24.2666 6.66053C26.8813 8.9683 28.3811 12.2904 28.3811 15.7751C28.3811 22.476 22.9295 27.9275 16.2287 27.9275C9.52784 27.9275 4.07635 22.476 4.07635 15.7751C4.07635 9.07423 9.52784 3.62274 16.2287 3.62274C18.3653 3.62274 20.4663 4.18484 22.3045 5.24824C22.5407 5.38491 22.8429 5.30413 22.9795 5.06794C23.1162 4.83174 23.0355 4.52961 22.7994 4.39294C20.8108 3.24278 18.5387 2.63477 16.2287 2.63477C8.98305 2.63477 3.08838 8.52944 3.08838 15.7751C3.08838 23.0207 8.98305 28.9154 16.2287 28.9154C23.4744 28.9154 29.369 23.0207 29.369 15.7751C29.369 12.0071 27.7475 8.41501 24.9204 5.91979Z" fill="#F2F2F2"/>
<path d="M24.6183 21.131L24.1445 18.5647C24.1078 18.3659 23.9537 18.2096 23.7556 18.1699L20.0297 17.4248C19.8677 17.3926 19.7003 17.4432 19.5835 17.56L18.0537 19.0899C15.4752 17.9389 14.0504 16.5111 12.7954 13.8222L14.3206 12.2971C14.4373 12.1803 14.488 12.0129 14.4556 11.8509L13.7105 8.12488C13.6709 7.92671 13.5145 7.77265 13.3158 7.73593L10.7494 7.26212C10.6835 7.24992 10.6157 7.25134 10.5503 7.26619C9.87878 7.41882 9.26596 7.75731 8.77835 8.24498C7.93396 9.08937 7.61143 10.3231 7.84578 11.8127C8.05929 13.1702 8.48997 14.6466 9.05836 15.97C9.16607 16.2208 9.45662 16.3368 9.70723 16.229C9.9579 16.1213 10.0738 15.8308 9.96616 15.5801C9.42926 14.3302 9.02286 12.9376 8.82173 11.6591C8.63594 10.4778 8.85636 9.56416 9.47695 8.94358C9.80964 8.61082 10.222 8.3734 10.6746 8.25299L12.8074 8.64675L13.4352 11.7854L11.8545 13.3661C11.7097 13.5108 11.6692 13.7298 11.7527 13.9168C13.1897 17.1349 14.8755 18.8193 17.9726 20.1318C18.1581 20.2102 18.3723 20.1685 18.5147 20.0262L20.0953 18.4455L23.2339 19.0732L23.6277 21.2061C23.5073 21.6585 23.2698 22.0709 22.9372 22.4037C22.3165 23.0243 21.4027 23.2447 20.2216 23.0589C17.8602 22.6874 14.5847 21.541 12.4735 19.4382L12.4432 19.4078C11.8698 18.8322 11.336 18.134 10.8565 17.3324C10.7165 17.0983 10.4132 17.022 10.1789 17.1621C9.94478 17.3021 9.86855 17.6055 10.0086 17.8396C10.5294 18.7102 11.1129 19.4724 11.745 20.1071L11.7755 20.1375C14.0548 22.4078 17.5536 23.6394 20.068 24.0348C21.0705 24.1926 22.1476 24.1186 23.031 23.5787C23.2506 23.4446 23.4537 23.2842 23.6356 23.1023C24.1234 22.6145 24.4618 22.0018 24.6144 21.3302C24.6292 21.2647 24.6305 21.1969 24.6183 21.131Z" fill="#F2F2F2"/>
</g>
<defs>
<clipPath id="clip0_32_3938">
<rect width="31.55" height="31.55" fill="white" transform="translate(0.453613)"/>
</clipPath>
</defs>
</svg>
